<svg width="38" height="38" viewBox="0 0 38 38" fill="none" xmlns="http://www.w3.org/2000/svg">
<g id="iconixto/linear/settings">
<g id="icon">
<path fill-rule="evenodd" clip-rule="evenodd" d="M26.992 18.8178C26.992 23.0576 23.4947 26.4946 19.1805 26.4946C14.8664 26.4946 11.3691 23.0576 11.3691 18.8178C11.3691 14.5781 14.8664 11.1411 19.1805 11.1411C23.4947 11.1411 26.992 14.5781 26.992 18.8178ZM24.6485 18.8178C24.6485 21.7857 22.2004 24.1916 19.1805 24.1916C16.1606 24.1916 13.7125 21.7857 13.7125 18.8178C13.7125 15.85 16.1606 13.4441 19.1805 13.4441C22.2004 13.4441 24.6485 15.85 24.6485 18.8178Z" fill="#363538" fill-opacity="0.4"/>
<path fill-rule="evenodd" clip-rule="evenodd" d="M10.0161 6.28906C8.52161 7.13701 8.00957 9.01503 8.8724 10.4837C9.84583 12.1407 8.62905 14.2119 6.6822 14.2119C4.95654 14.2119 3.55762 15.5867 3.55762 17.2826V20.3533C3.55762 22.0492 4.95654 23.424 6.6822 23.424C8.62905 23.424 9.84584 25.4952 8.87242 27.1522C8.00959 28.6209 8.52163 30.4989 10.0161 31.3468L12.7221 32.8822C14.2165 33.7301 16.1275 33.2269 16.9903 31.7582C17.9637 30.1013 20.3973 30.1013 21.3707 31.7582C22.2335 33.2269 24.1445 33.7301 25.639 32.8822L28.3449 31.3468C29.8394 30.4989 30.3514 28.6208 29.4886 27.1521C28.5152 25.4952 29.732 23.424 31.6788 23.424C33.4045 23.424 34.8034 22.0492 34.8034 20.3533V17.2826C34.8034 15.5867 33.4045 14.2119 31.6788 14.2119C29.732 14.2119 28.5152 12.1407 29.4886 10.4837C30.3515 9.01504 29.8394 7.13702 28.345 6.28907L25.639 4.75372C24.1445 3.90577 22.2336 4.40898 21.3707 5.87768C20.3973 7.53463 17.9637 7.53462 16.9903 5.87766C16.1275 4.40897 14.2165 3.90575 12.722 4.75371L10.0161 6.28906ZM10.9019 9.33221C10.6862 8.96503 10.8142 8.49553 11.1878 8.28354L13.8938 6.74819C14.2674 6.5362 14.7451 6.662 14.9608 7.02918C16.8362 10.2215 21.5248 10.2215 23.4002 7.02919C23.6159 6.66202 24.0937 6.53621 24.4673 6.7482L27.1732 8.28355C27.5469 8.49554 27.6749 8.96504 27.4592 9.33222C25.5838 12.5245 27.928 16.5149 31.6788 16.5149C32.1102 16.5149 32.46 16.8586 32.46 17.2826V20.3533C32.46 20.7773 32.1102 21.121 31.6788 21.121C27.928 21.121 25.5837 25.1113 27.4591 28.3037C27.6748 28.6708 27.5468 29.1403 27.1732 29.3523L24.4673 30.8877C24.0936 31.0997 23.6159 30.9739 23.4002 30.6067C21.5248 27.4144 16.8362 27.4144 14.9608 30.6067C14.7451 30.9739 14.2674 31.0997 13.8938 30.8877L11.1878 29.3523C10.8142 29.1403 10.6862 28.6708 10.9019 28.3037C12.7773 25.1113 10.433 21.121 6.6822 21.121C6.25078 21.121 5.90105 20.7773 5.90105 20.3533V17.2826C5.90105 16.8586 6.25078 16.5149 6.6822 16.5149C10.4331 16.5149 12.7773 12.5245 10.9019 9.33221Z" fill="#363538" fill-opacity="0.4"/>
</g>
</g>
</svg>
