<svg width="21" height="21" viewBox="0 0 21 21" fill="none" xmlns="http://www.w3.org/2000/svg">
<path fill-rule="evenodd" clip-rule="evenodd" d="M16.4718 2.46208C14.8275 3.43957 12.5136 5.21057 9.43935 8.26236L8.05229 8.80667C7.2207 9.133 6.69685 9.96151 6.76291 10.8529L6.91652 12.9257C6.96546 13.586 7.49182 14.1077 8.14982 14.1561L10.3639 14.319C11.1593 14.3774 11.9174 13.9688 12.3033 13.2705L13.0484 11.9223C16.3499 8.62334 17.8343 6.3266 18.6779 4.60668C19.0219 3.90517 18.9218 3.13803 18.4403 2.6449C17.9436 2.13627 17.1677 2.04837 16.4718 2.46208ZM17.1127 3.54023C17.2494 3.45898 17.348 3.44981 17.4047 3.45553C17.4619 3.46131 17.5074 3.48479 17.5429 3.5212C17.6066 3.58646 17.6931 3.76623 17.5518 4.05437C16.8115 5.5637 15.4966 7.63933 12.54 10.6535L10.68 8.80059C13.5286 6.01163 15.646 4.41218 17.1127 3.54023ZM9.6371 9.53215L11.7649 11.6517L11.2055 12.6638C11.0574 12.9319 10.7649 13.0908 10.4559 13.0681L8.24181 12.9052C8.20008 12.9022 8.17009 12.8697 8.16737 12.833L8.01375 10.7602C7.98852 10.4198 8.18845 10.1006 8.51047 9.97426L9.6371 9.53215Z" fill="white"/>
<path d="M3.83069 7.21694C3.83069 5.71606 5.04739 4.49936 6.54828 4.49936H10.7292C11.0755 4.49936 11.3563 4.21858 11.3563 3.87222C11.3563 3.52586 11.0755 3.24508 10.7292 3.24508H6.54828C4.35468 3.24508 2.57642 5.02335 2.57642 7.21694V13.9064C2.57642 16.1 4.35468 17.8783 6.54828 17.8783H14.9101C17.1037 17.8783 18.8819 16.1 18.8819 13.9064V9.72549C18.8819 9.37913 18.6012 9.09835 18.2548 9.09835C17.9085 9.09835 17.6277 9.37913 17.6277 9.72549V13.9064C17.6277 15.4073 16.411 16.624 14.9101 16.624H6.54828C5.04739 16.624 3.83069 15.4073 3.83069 13.9064V7.21694Z" fill="white"/>
</svg>
