<svg width="44" height="43" viewBox="0 0 44 43" fill="none" xmlns="http://www.w3.org/2000/svg">
<path d="M12.6 19.5254C13.5941 19.5254 14.4 18.7307 14.4 17.7504C14.4 16.7701 13.5941 15.9754 12.6 15.9754C11.6059 15.9754 10.8 16.7701 10.8 17.7504C10.8 18.7307 11.6059 19.5254 12.6 19.5254Z" fill="#6B84EA"/>
<path d="M23.4 17.7504C23.4 18.7307 22.5941 19.5254 21.6 19.5254C20.6059 19.5254 19.8 18.7307 19.8 17.7504C19.8 16.7701 20.6059 15.9754 21.6 15.9754C22.5941 15.9754 23.4 16.7701 23.4 17.7504Z" fill="#6B84EA"/>
<path d="M30.6 19.5254C31.5941 19.5254 32.4 18.7307 32.4 17.7504C32.4 16.7701 31.5941 15.9754 30.6 15.9754C29.6059 15.9754 28.8 16.7701 28.8 17.7504C28.8 18.7307 29.6059 19.5254 30.6 19.5254Z" fill="#6B84EA"/>
<path d="M14.4 23.9629C14.4 24.9432 13.5941 25.7379 12.6 25.7379C11.6059 25.7379 10.8 24.9432 10.8 23.9629C10.8 22.9826 11.6059 22.1879 12.6 22.1879C13.5941 22.1879 14.4 22.9826 14.4 23.9629Z" fill="#6B84EA"/>
<path d="M21.6 25.7379C22.5941 25.7379 23.4 24.9432 23.4 23.9629C23.4 22.9826 22.5941 22.1879 21.6 22.1879C20.6059 22.1879 19.8 22.9826 19.8 23.9629C19.8 24.9432 20.6059 25.7379 21.6 25.7379Z" fill="#6B84EA"/>
<path d="M32.4 23.9629C32.4 24.9432 31.5941 25.7379 30.6 25.7379C29.6059 25.7379 28.8 24.9432 28.8 23.9629C28.8 22.9826 29.6059 22.1879 30.6 22.1879C31.5941 22.1879 32.4 22.9826 32.4 23.9629Z" fill="#6B84EA"/>
<path d="M12.6 31.9504C13.5941 31.9504 14.4 31.1557 14.4 30.1754C14.4 29.1951 13.5941 28.4004 12.6 28.4004C11.6059 28.4004 10.8 29.1951 10.8 30.1754C10.8 31.1557 11.6059 31.9504 12.6 31.9504Z" fill="#6B84EA"/>
<path d="M23.4 30.1754C23.4 31.1557 22.5941 31.9504 21.6 31.9504C20.6059 31.9504 19.8 31.1557 19.8 30.1754C19.8 29.1951 20.6059 28.4004 21.6 28.4004C22.5941 28.4004 23.4 29.1951 23.4 30.1754Z" fill="#6B84EA"/>
<path d="M30.6 31.9504C31.5941 31.9504 32.4 31.1557 32.4 30.1754C32.4 29.1951 31.5941 28.4004 30.6 28.4004C29.6059 28.4004 28.8 29.1951 28.8 30.1754C28.8 31.1557 29.6059 31.9504 30.6 31.9504Z" fill="#6B84EA"/>
<path fill-rule="evenodd" clip-rule="evenodd" d="M13.95 5.32539C13.95 4.59016 13.3456 3.99414 12.6 3.99414C11.8544 3.99414 11.25 4.59016 11.25 5.32539H10.8C6.82353 5.32539 3.59998 8.50417 3.59998 12.4254V31.9504C3.59998 35.8716 6.82353 39.0504 10.8 39.0504H32.4C36.3764 39.0504 39.6 35.8716 39.6 31.9504V12.4254C39.6 8.50417 36.3764 5.32539 32.4 5.32539H31.95C31.95 4.59016 31.3456 3.99414 30.6 3.99414C29.8544 3.99414 29.25 4.59016 29.25 5.32539H13.95ZM29.25 10.6504V7.98789H13.95V10.6504C13.95 11.3856 13.3456 11.9816 12.6 11.9816C11.8544 11.9816 11.25 11.3856 11.25 10.6504V7.98789H10.8C8.31469 7.98789 6.29998 9.97463 6.29998 12.4254V31.9504C6.29998 34.4012 8.31469 36.3879 10.8 36.3879H32.4C34.8853 36.3879 36.9 34.4012 36.9 31.9504V12.4254C36.9 9.97463 34.8853 7.98789 32.4 7.98789H31.95V10.6504C31.95 11.3856 31.3456 11.9816 30.6 11.9816C29.8544 11.9816 29.25 11.3856 29.25 10.6504Z" fill="#6B84EA"/>
</svg>
