<svg width="60" height="60" viewBox="0 0 60 60" fill="none" xmlns="http://www.w3.org/2000/svg">
<g id="iconixto/solid/stethoscope">
<path id="icon" d="M15.4005 8.31428C15.4005 9.66361 14.3067 10.7575 12.9574 10.7575C12.5152 10.7575 12.1005 10.64 11.7427 10.4346C10.8274 10.9033 10.264 11.8864 10.3932 12.9494C11.0487 18.3421 12.3776 26.7416 14.6416 32.0243C15.7433 34.595 17.2876 36.0962 19.018 36.9883C20.7915 37.9025 22.8924 38.2433 25.1733 38.2433C27.475 38.2433 29.6457 37.9239 31.4501 37.0199C33.1966 36.1449 34.711 34.6693 35.6735 32.1027C37.9304 26.0843 39.2536 18.049 39.9183 12.929C40.0546 11.8792 39.5041 10.9039 38.6008 10.4363C38.2437 10.6406 37.8301 10.7575 37.3892 10.7575C36.0399 10.7575 34.946 9.66361 34.946 8.31428C34.946 6.96494 36.0399 5.87109 37.3892 5.87109C38.1534 5.87109 38.8356 6.22193 39.2836 6.77132C42.0262 7.63384 43.9527 10.3191 43.5526 13.4008C42.8831 18.557 41.5198 26.9499 39.1049 33.3895C37.82 36.8158 35.6696 39.005 33.0916 40.2965C30.9457 41.3716 28.587 41.7842 26.3381 41.8831C25.4553 43.8103 25.0158 45.354 25.0567 46.6174C25.0982 47.8991 25.6402 49.0975 27.4113 50.2783C27.778 50.5227 28.17 50.6394 28.6107 50.6565C29.7252 50.6999 30.8687 50.2104 32.1819 49.1698C33.3609 48.2356 34.48 47.0221 35.6941 45.7055C35.8508 45.5356 36.0093 45.3638 36.1694 45.1909C37.4919 43.7628 38.9937 42.1874 40.6432 41.2192C42.4118 40.1811 44.5106 39.7553 46.7598 40.8799C46.7899 40.8949 46.8193 40.9107 46.8482 40.9271C47.6329 40.3899 48.5823 40.0756 49.6051 40.0756C52.3038 40.0756 54.4915 42.2633 54.4915 44.962C54.4915 47.6607 52.3038 49.8484 49.6051 49.8484C46.9064 49.8484 44.7187 47.6607 44.7187 44.962C44.7187 44.6406 44.7498 44.3264 44.809 44.0223C44.0641 43.7493 43.3684 43.8691 42.4983 44.3798C41.3889 45.0309 40.236 46.1933 38.8582 47.681C38.706 47.8454 38.5511 48.0137 38.3937 48.1847C37.2085 49.4721 35.8791 50.9161 34.4579 52.0422C32.8297 53.3323 30.836 54.4107 28.468 54.3185C27.4164 54.2775 26.3574 53.9802 25.3784 53.3275C22.7693 51.5881 21.4789 49.3661 21.3938 46.7358C21.3411 45.1052 21.759 43.425 22.4137 41.7467C20.6847 41.5322 18.9558 41.0793 17.3388 40.2457C14.8131 38.9437 12.6927 36.7802 11.2731 33.4679C8.7774 27.6445 7.40724 18.7562 6.75516 13.3916C6.38034 10.3079 8.31696 7.62862 11.0644 6.76954C11.5124 6.22117 12.194 5.87109 12.9574 5.87109C14.3067 5.87109 15.4005 6.96494 15.4005 8.31428Z" fill="#363538" fill-opacity="0.7"/>
</g>
</svg>
