<svg width="22" height="11" viewBox="0 0 22 11" fill="none" xmlns="http://www.w3.org/2000/svg">
<path d="M6.25623 10.5669L1.11667 4.77308L1.77324 4.20152L2.5301 3.63648L3.09774 3.25979L4.42154 2.5234L5.15061 2.20041L6.00386 1.87344L6.61676 1.6621L7.40191 1.44678L8.23513 1.26335L9.27665 1.09189L10.1299 1.0241L10.9791 1L11.576 1.00037L12.0167 1.0241L12.7658 1.09189L13.5045 1.18798L14.4506 1.37632L15.7751 1.75302L16.4752 2.01772L17.8292 2.5999L18.8387 3.16214L19.9363 3.89982L20.465 4.33047L20.8095 4.60561L21.098 4.87277L15.9024 10.6108" stroke="black"/>
<path d="M6.23584 10.2971L6.74572 9.90031L7.28146 9.55679L8.01729 9.16906L8.86992 8.85189L9.81106 8.6287L10.6642 8.53906L11.261 8.53943L11.7017 8.56316L12.4486 8.66688L13.0416 8.7961L13.8824 9.08977L14.564 9.40988L15.3428 9.88563L15.9358 10.3731" stroke="black"/>
</svg>
