<svg width="37" height="36" viewBox="0 0 37 36" fill="none" xmlns="http://www.w3.org/2000/svg">
<g id="icon">
<path d="M18.5003 18.0002C23.0981 18.0002 26.8254 13.9707 26.8254 9.0001C26.8254 4.02948 23.0981 0 18.5003 0C13.9025 0 10.1752 4.02948 10.1752 9.0001C10.1752 13.9707 13.9025 18.0002 18.5003 18.0002Z" fill="#6B84EA"/>
<path d="M18.5003 36.0004C25.8568 36.0004 31.8204 32.3738 31.8204 27.9003C31.8204 23.4267 25.8568 19.8002 18.5003 19.8002C11.1438 19.8002 5.18015 23.4267 5.18015 27.9003C5.18015 32.3738 11.1438 36.0004 18.5003 36.0004Z" fill="#6B84EA"/>
<path d="M30.5254 9.00025C30.5254 8.11924 30.262 7.30475 29.8156 6.64385C29.4048 6.03559 28.839 5.55742 28.181 5.2772L28.134 5.25665C28.0502 5.21902 27.9676 5.17669 27.887 5.1299C27.802 5.0805 27.7193 5.02615 27.6401 4.96714C27.1728 4.61915 26.8254 4.10927 26.8254 3.5002C26.8254 2.67176 27.4539 1.98349 28.2028 2.1589C30.4205 2.67831 32.2149 4.42596 32.946 6.71014C33.1757 7.42771 33.3005 8.19823 33.3005 9.00025C33.3005 9.80228 33.1757 10.5728 32.946 11.2904C32.2149 13.5745 30.4205 15.3222 28.2028 15.8416C27.4539 16.017 26.8254 15.3287 26.8254 14.5003C26.8254 13.8912 27.1728 13.3814 27.6401 13.0334C27.7193 12.9744 27.802 12.92 27.887 12.8706C27.9676 12.8238 28.0502 12.7815 28.134 12.7439L28.181 12.7233C28.839 12.4431 29.4048 11.9649 29.8156 11.3567C30.262 10.6958 30.5254 9.88127 30.5254 9.00025Z" fill="#6B84EA"/>
<path d="M34.2255 27.0005C34.2255 27.1748 34.1407 27.569 33.716 28.0751C33.5593 28.2617 33.3565 28.4635 33.0946 28.6752C33.0466 28.714 33.0003 28.7549 32.9559 28.798C32.9105 28.842 32.867 28.8881 32.8258 28.9362C32.5506 29.2575 32.3755 29.6659 32.3755 30.1085C32.3755 31.2529 33.4619 32.0263 34.3423 31.3906C34.4845 31.2878 34.6219 31.1827 34.7542 31.0753L34.8073 31.0319C35.2063 30.7028 35.5577 30.3528 35.8557 29.9852C36.59 29.0798 37.0005 28.0681 37.0005 27.0005C37.0005 25.9329 36.5899 24.9211 35.8557 24.0157C35.5577 23.6482 35.2062 23.2982 34.8073 22.9691L34.7542 22.9256C34.6219 22.8182 34.4845 22.7131 34.3423 22.6104C33.4619 21.9747 32.3755 22.748 32.3755 23.8925C32.3755 24.335 32.5506 24.7435 32.8258 25.0647C32.867 25.1128 32.9105 25.159 32.9559 25.203C33.0003 25.246 33.0466 25.287 33.0946 25.3258C33.3565 25.5374 33.5593 25.7392 33.716 25.9258C34.1407 26.4319 34.2255 26.8261 34.2255 27.0005Z" fill="#6B84EA"/>
<path d="M6.47507 8.99977C6.47507 8.11875 6.73853 7.30426 7.18493 6.64336C7.59576 6.0351 8.16155 5.55693 8.8195 5.27671L8.86649 5.25616C8.95029 5.21853 9.03293 5.1762 9.11347 5.12941C9.19851 5.08002 9.2812 5.02566 9.36044 4.96665C9.82774 4.61866 10.1751 4.10878 10.1751 3.49971C10.1751 2.67127 9.54661 1.983 8.79768 2.15841C6.57999 2.67782 4.78564 4.42547 4.05449 6.70965C3.8248 7.42722 3.70004 8.19774 3.70004 8.99977C3.70004 9.80179 3.8248 10.5723 4.05449 11.2899C4.78565 13.5741 6.57999 15.3217 8.79768 15.8411C9.54661 16.0165 10.1751 15.3283 10.1751 14.4998C10.1751 13.8907 9.82774 13.3809 9.36044 13.0329C9.2812 12.9739 9.1985 12.9195 9.11347 12.8701C9.03292 12.8233 8.95028 12.781 8.86647 12.7434L8.8195 12.7228C8.16155 12.4426 7.59576 11.9644 7.18493 11.3562C6.73853 10.6953 6.47507 9.88078 6.47507 8.99977Z" fill="#6B84EA"/>
<path d="M2.77503 27C2.77503 27.1743 2.85977 27.5685 3.28454 28.0746C3.44116 28.2612 3.64401 28.4631 3.90588 28.6747C3.95387 28.7135 4.00019 28.7545 4.0446 28.7975C4.09003 28.8415 4.13347 28.8876 4.17467 28.9357C4.44988 29.257 4.62505 29.6654 4.62505 30.108C4.62505 31.2525 3.53858 32.0258 2.65824 31.3901C2.51597 31.2873 2.37857 31.1822 2.24627 31.0748L2.19318 31.0314C1.79425 30.7023 1.44284 30.3523 1.14477 29.9847C0.410556 29.0793 0 28.0676 0 27C0 25.9324 0.410566 24.9206 1.1448 24.0152C1.44286 23.6477 1.79426 23.2977 2.19318 22.9686L2.24627 22.9251C2.37857 22.8177 2.51597 22.7126 2.65824 22.6099C3.53858 21.9742 4.62505 22.7475 4.62505 23.892C4.62505 24.3345 4.44988 24.743 4.17467 25.0643C4.13347 25.1123 4.09003 25.1585 4.0446 25.2025C4.00019 25.2455 3.95387 25.2865 3.90588 25.3253C3.64401 25.5369 3.44116 25.7387 3.28454 25.9253C2.85977 26.4314 2.77503 26.8256 2.77503 27Z" fill="#6B84EA"/>
</g>
</svg>
