<svg width="60" height="59" viewBox="0 0 60 59" fill="none" xmlns="http://www.w3.org/2000/svg">
<g id="iconixto/solid/pie-chart">
<g id="icon">
<path d="M34.9888 24.7683V8.35011C34.9888 7.97229 35.2951 7.66602 35.6729 7.66602C44.7404 7.66602 52.0911 15.0167 52.0911 24.0842C52.0911 24.462 51.7848 24.7683 51.407 24.7683H34.9888Z" fill="#363538" fill-opacity="0.7"/>
<path d="M51.9555 32.0928C52.1051 30.7518 50.9972 29.6547 49.6479 29.6547H32.5456C31.1963 29.6547 30.1024 28.5608 30.1024 27.2115V10.1092C30.1024 8.75987 29.0052 7.65198 27.6642 7.8016C24.1779 8.19057 20.8226 9.40973 17.8862 11.3718C14.2702 13.7879 11.4518 17.2221 9.78756 21.24C8.1233 25.2579 7.68785 29.679 8.53628 33.9444C9.38472 38.2098 11.4789 42.1278 14.5541 45.203C17.6293 48.2781 21.5473 50.3723 25.8126 51.2208C30.078 52.0692 34.4992 51.6338 38.5171 49.9695C42.535 48.3052 45.9692 45.4869 48.3853 41.8709C50.3473 38.9345 51.5665 35.5792 51.9555 32.0928Z" fill="#363538" fill-opacity="0.7"/>
</g>
</g>
</svg>
