<svg width="16" height="16" viewBox="0 0 16 16" fill="none" xmlns="http://www.w3.org/2000/svg">
<path id="icon" fill-rule="evenodd" clip-rule="evenodd" d="M7.88747 0.448242C8.28878 0.448242 8.61411 0.783136 8.61411 1.19625V7.42964H14.6694C15.0707 7.42964 15.396 7.76454 15.396 8.17765C15.396 8.59076 15.0707 8.92566 14.6694 8.92566H8.61411V15.159C8.61411 15.5722 8.28878 15.9071 7.88747 15.9071C7.48617 15.9071 7.16084 15.5722 7.16084 15.159V8.92566H1.10554C0.704232 8.92566 0.378906 8.59076 0.378906 8.17765C0.378906 7.76454 0.704232 7.42964 1.10554 7.42964H7.16084V1.19625C7.16084 0.783136 7.48617 0.448242 7.88747 0.448242Z" fill="white"/>
</svg>
