<svg width="24" height="24" viewBox="0 0 24 24" fill="none" xmlns="http://www.w3.org/2000/svg">
<g id="Group 28">
<path id="icon" d="M17.3983 17.0708C18.976 15.3352 19.9375 13.0295 19.9375 10.4993C19.9375 5.10196 15.5621 0.726562 10.1648 0.726562C4.76749 0.726562 0.39209 5.10196 0.39209 10.4993C0.39209 15.8966 4.76749 20.272 10.1648 20.272C12.3898 20.272 14.4411 19.5285 16.0838 18.2763C16.1325 18.3633 16.1962 18.4437 16.2749 18.5136L21.772 23.4C22.1502 23.7361 22.7293 23.7021 23.0655 23.3239C23.4017 22.9457 23.3676 22.3666 22.9894 22.0304L17.4923 17.1441C17.4621 17.1173 17.4307 17.0929 17.3983 17.0708Z" fill="#6D6D6D" fill-opacity="0.4"/>
<circle id="Ellipse 60" cx="10.2868" cy="10.6218" r="7.69602" fill="#F5F6FA"/>
</g>
</svg>
