<svg width="32" height="32" viewBox="0 0 32 32" fill="none" xmlns="http://www.w3.org/2000/svg">
<path d="M11.2562 10.5669L6.11667 4.77308L6.77324 4.20152L7.5301 3.63648L8.09774 3.25979L9.42154 2.5234L10.1506 2.20041L11.0039 1.87344L11.6168 1.6621L12.4019 1.44678L13.2351 1.26335L14.2767 1.09189L15.1299 1.0241L15.9791 1L16.576 1.00037L17.0167 1.0241L17.7658 1.09189L18.5045 1.18798L19.4506 1.37632L20.7751 1.75302L21.4752 2.01772L22.8292 2.5999L23.8387 3.16214L24.9363 3.89982L25.465 4.33047L25.8095 4.60561L26.098 4.87277L20.9024 10.6108" stroke="black"/>
<path d="M11.2358 10.2971L11.7457 9.90031L12.2815 9.55679L13.0173 9.16906L13.8699 8.85189L14.8111 8.6287L15.6642 8.53906L16.261 8.53943L16.7017 8.56316L17.4486 8.66688L18.0416 8.7961L18.8824 9.08977L19.564 9.40988L20.3428 9.88563L20.9358 10.3731" stroke="black"/>
<path d="M20.7988 21.3979L25.8979 27.227L25.2373 27.794L24.4766 28.3538L23.9063 28.7266L22.5774 29.4538L21.8461 29.7718L20.9906 30.0929L20.3763 30.3L19.5896 30.5099L18.7552 30.6875L17.7125 30.8518L16.8588 30.9137L16.0094 30.932L15.4125 30.9275L14.972 30.9007L14.2234 30.8277L13.4854 30.7266L12.5406 30.5317L11.2188 30.1459L10.5205 29.8763L9.17064 29.2848L8.1651 28.7157L7.07266 27.9704L6.54689 27.5361L6.20431 27.2586L5.91776 26.9895L11.1532 21.2874" stroke="black"/>
<path d="M20.8179 21.6678L20.3053 22.061L19.7672 22.4009L19.0286 22.7835L18.1738 23.0948L17.2312 23.3115L16.3774 23.3952L15.7806 23.3907L15.3401 23.364L14.5939 23.2551L14.0018 23.1218L13.1631 22.8223L12.4838 22.4975L11.7083 22.0164L11.1187 21.5248" stroke="black"/>
<path d="M26.0908 4.92285L21.0335 10.5035L21.6538 11.1462L22.2181 11.8963L22.5627 12.505L22.7959 12.9759L23.0087 13.4905L23.2317 14.2472L23.3635 14.9905L23.4109 15.7708V16.5646L23.2892 17.3448L23.1304 17.9906L22.9108 18.6364L22.5627 19.3797L22.0796 20.1667L21.4511 20.9369L20.8779 21.4903L25.8667 27.1315L26.2165 26.8379L26.6864 26.377L27.114 25.9174L27.8673 25.0592L28.4595 24.2273L29.1646 23.069L29.6963 22.0122L29.9685 21.3657L30.1975 20.7004L30.5416 19.6116L30.6466 19.1315L30.7517 18.6039L30.8042 18.2474L30.8615 17.9051L30.9331 17.2158L31 16.2651L30.9713 15.0482L30.8615 13.9311L30.7039 12.9471L30.4358 11.8816L30.1022 10.9079L29.9398 10.4135L29.7297 9.90012L29.0164 8.5321L28.5206 7.72438L27.9342 6.90062L27.5282 6.4015L27.0841 5.90238L26.4751 5.26756L26.0908 4.92285Z" stroke="black"/>
<path d="M5.90917 26.9902L10.9665 21.4096L10.3462 20.7669L9.7819 20.0168L9.43726 19.4081L9.20412 18.9372L8.99126 18.4226L8.76825 17.6659L8.63648 16.9226L8.58909 16.1423V15.3485L8.71082 14.5682L8.86962 13.9225L9.08924 13.2767L9.43726 12.5334L9.92043 11.7464L10.5489 10.9762L11.1221 10.4228L6.13333 4.78159L5.7835 5.07519L5.31363 5.53608L4.88596 5.99564L4.1327 6.85389L3.54054 7.68576L2.83544 8.84406L2.3037 9.90092L2.0315 10.5474L1.80253 11.2127L1.45845 12.3015L1.35339 12.7816L1.24833 13.3092L1.1958 13.6657L1.13849 14.008L1.06686 14.6973L1 15.648L1.02866 16.8649L1.13849 17.982L1.29608 18.9659L1.56418 20.0315L1.89779 21.0052L2.06015 21.4996L2.27027 22.013L2.98355 23.381L3.47944 24.1887L4.06584 25.0125L4.47176 25.5116L4.91588 26.0107L5.52495 26.6455L5.90917 26.9902Z" stroke="black"/>
</svg>
