<svg width="103" height="103" viewBox="0 0 103 103" fill="none" xmlns="http://www.w3.org/2000/svg">
<path fill-rule="evenodd" clip-rule="evenodd" d="M51.656 20.5004C51.656 15.0227 47.0677 9.78596 40.7471 10.5802C33.6407 11.4732 26.8108 14.0079 20.8117 18.0163C13.2034 23.1 7.27348 30.3257 3.77176 38.7796C0.270046 47.2335 -0.646163 56.5359 1.139 65.5105C2.92416 74.4851 7.33051 82.7288 13.8008 89.1992C20.2712 95.6695 28.5149 100.076 37.4895 101.861C46.4641 103.646 55.7665 102.73 64.2204 99.2282C72.6743 95.7265 79.9 89.7966 84.9837 82.1883C88.9921 76.1892 91.5268 69.3593 92.4198 62.2529C93.214 55.9323 87.9773 51.344 82.4996 51.344H56.7966C53.9575 51.344 51.656 49.0425 51.656 46.2034V20.5004Z" fill="#363538" fill-opacity="0.7"/>
<path fill-rule="evenodd" clip-rule="evenodd" d="M67.6623 0.354728C61.2305 -0.570423 56.625 4.79047 56.625 10.2544V40.6989C56.625 43.8337 59.1663 46.375 62.3011 46.375L92.7456 46.375C98.2095 46.375 103.57 41.7695 102.645 35.3377C102.156 31.938 101.244 28.6049 99.9235 25.4175C97.8489 20.4091 94.8082 15.8583 90.975 12.025C87.1417 8.19178 82.5909 5.15106 77.5825 3.07651C74.3951 1.75623 71.062 0.843735 67.6623 0.354728Z" fill="#363538" fill-opacity="0.7"/>
</svg>
