<svg width="46" height="44" viewBox="0 0 46 44" fill="none" xmlns="http://www.w3.org/2000/svg">
<g id="icon">
<path d="M14.8581 0H9.9717C4.57437 0 0.198975 4.3754 0.198975 9.77273V34.2045C0.198975 39.6019 4.57437 43.9773 9.9717 43.9773H14.8581C18.1138 43.9773 20.8738 41.8545 21.8294 38.9176C22.2988 37.4748 21.8344 35.9413 21.1559 34.5843L17.0433 26.3591C15.6677 23.6078 15.6677 20.3694 17.0433 17.6181L21.1559 9.39301C21.8344 8.03602 22.2988 6.50243 21.8294 5.05971C20.8738 2.12275 18.1138 0 14.8581 0Z" fill="#363538" fill-opacity="0.7"/>
<path d="M37.9942 15.8066C37.2786 16.5222 37.2786 17.6824 37.9942 18.398L39.7525 20.1562L22.1876 20.1562C21.1756 20.1562 20.3552 20.9766 20.3552 21.9886C20.3552 23.0006 21.1756 23.821 22.1876 23.821L39.7525 23.821L37.9942 25.5793C37.2786 26.2949 37.2786 27.4551 37.9942 28.1707C38.7098 28.8863 39.87 28.8863 40.5856 28.1707L45.4719 23.2843C45.6476 23.1086 45.7802 22.9062 45.8696 22.69C45.9592 22.474 46.0086 22.2371 46.0086 21.9886C46.0086 21.5197 45.8297 21.0507 45.4719 20.6929L40.5856 15.8066C39.87 15.091 38.7098 15.091 37.9942 15.8066Z" fill="#363538" fill-opacity="0.7"/>
</g>
</svg>
