<svg width="14" height="15" viewBox="0 0 14 15" fill="none" xmlns="http://www.w3.org/2000/svg">
<path id="icon" d="M0.537376 2.80383L1.1673 1.54398C1.61477 0.649041 2.8075 0.455486 3.51501 1.16299L5.18741 2.8354C5.63358 3.28157 5.74419 3.96317 5.46201 4.52753L5.26944 4.91267C4.95962 5.53231 4.95446 6.26554 5.31548 6.85683C5.5981 7.31973 5.95993 7.85134 6.32029 8.2117C6.63086 8.52227 7.06863 8.83393 7.48 9.09505C8.1694 9.53265 9.04886 9.45016 9.70657 8.96623C10.2931 8.5347 11.1087 8.60558 11.612 9.13181L13.0482 10.6335C13.7303 11.3467 13.527 12.5165 12.6444 12.9579L11.3424 13.6088C10.3306 14.1148 9.18411 14.3297 8.1146 13.961C6.82993 13.5182 4.98883 12.6328 3.25113 10.8951C1.51344 9.15738 0.628037 7.31629 0.185201 6.03162C-0.183467 4.96211 0.0314588 3.81567 0.537376 2.80383Z" fill="#363538" fill-opacity="0.6"/>
</svg>
