<svg width="22" height="12" viewBox="0 0 22 12" fill="none" xmlns="http://www.w3.org/2000/svg">
<path d="M15.7988 1.39786L20.8979 7.22701L20.2373 7.79403L19.4766 8.35383L18.9063 8.7266L17.5774 9.45384L16.8461 9.77179L15.9906 10.0929L15.3763 10.3L14.5896 10.5099L13.7552 10.6875L12.7125 10.8518L11.8588 10.9137L11.0094 10.932L10.4125 10.9275L9.97205 10.9007L9.22344 10.8277L8.48538 10.7266L7.54065 10.5317L6.21881 10.1459L5.52054 9.87634L4.17064 9.28484L3.1651 8.71565L2.07266 7.97041L1.54689 7.53612L1.20431 7.25862L0.917758 6.98947L6.1532 1.28745" stroke="black"/>
<path d="M15.8179 1.66777L15.3053 2.06105L14.7672 2.40087L14.0286 2.78351L13.1738 3.09478L12.2312 3.31148L11.3774 3.39523L10.7806 3.39074L10.3401 3.36397L9.59394 3.25511L9.00185 3.1218L8.16308 2.82233L7.48381 2.49753L6.70827 2.01642L6.11867 1.52484" stroke="black"/>
</svg>
