<svg width="23" height="23" viewBox="0 0 23 23" fill="none" xmlns="http://www.w3.org/2000/svg">
<g id="iconixto/linear/theme">
<g id="icon">
<path fill-rule="evenodd" clip-rule="evenodd" d="M17.899 2.7098C16.079 3.79176 13.5178 5.75204 10.115 9.13L8.57968 9.73249C7.65921 10.0937 7.07937 11.0107 7.15249 11.9974L7.32253 14.2917C7.37669 15.0226 7.95931 15.6001 8.68764 15.6537L11.1384 15.8339C12.0188 15.8987 12.8579 15.4463 13.285 14.6734L14.1098 13.1812C17.7641 9.52956 19.4072 6.98735 20.3409 5.08361C20.7217 4.30713 20.6109 3.458 20.0779 2.91216C19.5282 2.34916 18.6693 2.25187 17.899 2.7098ZM18.6085 3.90318C18.7597 3.81324 18.8689 3.80309 18.9316 3.80943C18.9949 3.81582 19.0453 3.84181 19.0846 3.88212C19.1552 3.95434 19.2509 4.15333 19.0944 4.47226C18.2751 6.14291 16.8196 8.44039 13.547 11.7767L11.4882 9.72576C14.6413 6.63872 16.985 4.86831 18.6085 3.90318ZM10.3339 10.5355L12.6891 12.8816L12.0699 14.0019C11.9059 14.2986 11.5822 14.4745 11.2402 14.4493L8.78946 14.2691C8.74326 14.2657 8.71007 14.2298 8.70705 14.1891L8.53702 11.8948C8.50909 11.518 8.73039 11.1647 9.08683 11.0249L10.3339 10.5355Z" fill="white"/>
<path d="M3.90688 7.97285C3.90688 6.31156 5.25363 4.96481 6.91492 4.96481H11.5427C11.926 4.96481 12.2368 4.65403 12.2368 4.27065C12.2368 3.88727 11.926 3.57649 11.5427 3.57649H6.91492C4.48687 3.57649 2.51855 5.54481 2.51855 7.97285V15.3773C2.51855 17.8053 4.48687 19.7736 6.91492 19.7736H16.1704C18.5985 19.7736 20.5668 17.8053 20.5668 15.3773V10.7495C20.5668 10.3661 20.256 10.0553 19.8726 10.0553C19.4893 10.0553 19.1785 10.3661 19.1785 10.7495V15.3773C19.1785 17.0386 17.8317 18.3853 16.1704 18.3853H6.91492C5.25363 18.3853 3.90688 17.0386 3.90688 15.3773V7.97285Z" fill="white"/>
</g>
</g>
</svg>
