<svg width="19" height="18" viewBox="0 0 19 18" fill="none" xmlns="http://www.w3.org/2000/svg">
<path fill-rule="evenodd" clip-rule="evenodd" d="M4.39703 2.81326C4.32966 2.82092 4.26549 2.83592 4.20549 2.8572C3.40345 2.91118 2.69971 2.96486 2.19295 3.00535C1.93373 3.02606 1.72591 3.04333 1.58265 3.05545L1.41781 3.06954L1.36074 3.07452L1.35963 3.07462C0.939432 3.11179 0.633767 3.4354 0.676911 3.79742C0.720056 4.15945 1.09567 4.42279 1.51587 4.38562L1.51512 4.37931C1.51588 4.38562 1.51587 4.38562 1.51587 4.38562L1.5708 4.38083L1.7321 4.36704C1.8729 4.35513 2.07798 4.33808 2.33421 4.31761C2.84679 4.27665 3.56341 4.22204 4.37908 4.16744C6.01597 4.05786 8.03107 3.94977 9.59607 3.94977C11.1611 3.94977 13.1762 4.05786 14.8131 4.16744C15.6287 4.22204 16.3454 4.27665 16.8579 4.31761C17.1142 4.33808 17.3193 4.35513 17.46 4.36704L17.6213 4.38083L17.6756 4.38556C18.0958 4.42273 18.4721 4.15945 18.5152 3.79742C18.5584 3.4354 18.2527 3.11179 17.8325 3.07462L17.7743 3.06954L17.6095 3.05545C17.4662 3.04333 17.2584 3.02606 16.9992 3.00535C16.4924 2.96486 15.7887 2.91118 14.9866 2.8572C14.934 2.83855 14.8781 2.82471 14.8195 2.81639C14.315 2.74466 13.8903 2.45168 13.6987 2.04321L13.6065 1.84655C13.082 0.728219 11.8222 -0.00390625 10.4222 -0.00390625H9.04832C7.66686 -0.00390625 6.42368 0.71852 5.90617 1.82203C5.65524 2.35708 5.08967 2.73449 4.42562 2.81001L4.39703 2.81326ZM9.04832 1.31399C8.29042 1.31399 7.60838 1.71033 7.32446 2.31574C7.26283 2.44716 7.19077 2.57337 7.10927 2.69372C7.97536 2.65637 8.83366 2.63188 9.59607 2.63188C10.4422 2.63188 11.4064 2.66204 12.3683 2.70647C12.3368 2.65112 12.3075 2.59458 12.2804 2.53691L12.1882 2.34025C11.8973 1.72002 11.1986 1.31399 10.4222 1.31399H9.04832Z" fill="white"/>
<path d="M16.4768 5.98369C16.5134 5.62113 16.2019 5.30166 15.7811 5.27014C15.3602 5.23861 14.9894 5.50696 14.9528 5.86952L14.1317 14.0052C14.0286 15.0267 13.036 15.8108 11.8458 15.8108H6.93864C5.71017 15.8108 4.69964 14.9772 4.64628 13.9198L4.24145 5.89798C4.22311 5.5344 3.86612 5.25247 3.44411 5.26828C3.0221 5.28409 2.69486 5.59165 2.71321 5.95523L3.11804 13.9771C3.20697 15.7394 4.89119 17.1287 6.93864 17.1287H11.8458C13.8294 17.1287 15.4838 15.822 15.6556 14.1194L16.4768 5.98369Z" fill="white"/>
<path d="M6.5367 13.175C6.11429 13.175 5.77186 13.47 5.77186 13.834C5.77186 14.1979 6.11429 14.4929 6.5367 14.4929H12.6554C13.0779 14.4929 13.4203 14.1979 13.4203 13.834C13.4203 13.47 13.0779 13.175 12.6554 13.175H6.5367Z" fill="white"/>
<path d="M5.77186 11.1982C5.77186 10.8342 6.11429 10.5392 6.5367 10.5392H12.6554C13.0779 10.5392 13.4203 10.8342 13.4203 11.1982C13.4203 11.5621 13.0779 11.8571 12.6554 11.8571H6.5367C6.11429 11.8571 5.77186 11.5621 5.77186 11.1982Z" fill="white"/>
<path d="M6.5367 7.90344C6.11429 7.90344 5.77186 8.19846 5.77186 8.56239C5.77186 8.92631 6.11429 9.22133 6.5367 9.22133H12.6554C13.0779 9.22133 13.4203 8.92631 13.4203 8.56239C13.4203 8.19846 13.0779 7.90344 12.6554 7.90344H6.5367Z" fill="white"/>
</svg>
