<svg width="49" height="37" viewBox="0 0 49 37" fill="none" xmlns="http://www.w3.org/2000/svg">
<g id="Vector">
<path d="M5.32095 36.9167C5.1076 36.9167 4.89429 36.8655 4.68094 36.763C4.4913 36.6606 4.30166 36.5326 4.15943 36.3533L1.14894 32.5634C1.03042 32.4098 0.911835 32.2049 0.864425 32.0001C0.793311 31.7952 0.769609 31.5904 0.793314 31.3599C0.793314 31.155 0.864445 30.9501 0.959265 30.7453C1.05408 30.566 1.17259 30.3867 1.31482 30.2587C1.45705 30.1307 1.64669 30.0026 1.83633 29.9514C2.02597 29.8746 2.21561 29.849 2.42895 29.8746C2.61859 29.8746 2.80828 29.9515 2.99792 30.0539C3.16385 30.1563 3.32972 30.2843 3.44824 30.438L5.32095 32.7939L10.2041 26.648C10.4649 26.3151 10.8442 26.1103 11.2235 26.0847C11.6265 26.0591 12.0057 26.1872 12.3139 26.4688C12.6221 26.7505 12.8117 27.1602 12.8354 27.5699C12.8591 28.0053 12.7406 28.415 12.4799 28.7479L6.4588 36.3277C6.31658 36.5069 6.15064 36.6606 5.93729 36.7374C5.74766 36.8398 5.53434 36.891 5.29729 36.891L5.32095 36.9167Z" fill="#6D6D6D"/>
<path d="M44.4577 9.61905H17.4578C16.4622 9.61905 15.514 9.18374 14.8029 8.44112C14.0917 7.6729 13.7125 6.64861 13.7125 5.57309C13.7125 4.49758 14.1154 3.47329 14.8029 2.70506C15.514 1.93684 16.4622 1.52706 17.4578 1.52706H44.4577C45.4533 1.52706 46.4014 1.96245 47.1126 2.70506C47.8237 3.47329 48.203 4.49758 48.203 5.57309C48.203 6.64861 47.8 7.6729 47.1126 8.44112C46.4014 9.20935 45.4533 9.61905 44.4577 9.61905Z" fill="#6D6D6D"/>
<path d="M44.4577 22.6277H17.4578C16.4622 22.6277 15.514 22.1923 14.8029 21.4497C14.0917 20.6815 13.7125 19.6572 13.7125 18.5817C13.7125 17.5062 14.1154 16.4819 14.8029 15.7137C15.514 14.9454 16.4622 14.5357 17.4578 14.5357H44.4577C45.4533 14.5357 46.4014 14.971 47.1126 15.7137C47.8237 16.4819 48.203 17.5062 48.203 18.5817C48.203 19.6572 47.8 20.6815 47.1126 21.4497C46.4014 22.2179 45.4533 22.6277 44.4577 22.6277Z" fill="#6D6D6D"/>
<path d="M44.4577 35.6107H17.4578C16.4622 35.6107 15.514 35.1754 14.8029 34.4327C14.0917 33.6645 13.7125 32.6402 13.7125 31.5647C13.7125 30.4892 14.1154 29.4649 14.8029 28.6967C15.514 27.9285 16.4622 27.5188 17.4578 27.5188H44.4577C45.4533 27.5188 46.4014 27.9541 47.1126 28.6967C47.8237 29.4649 48.203 30.4892 48.203 31.5647C48.203 32.6402 47.8 33.6645 47.1126 34.4327C46.4014 35.201 45.4533 35.6107 44.4577 35.6107Z" fill="#6D6D6D"/>
<path d="M6.8381 10.3617C9.32711 10.3617 11.342 8.18506 11.342 5.49627C11.342 2.80748 9.32711 0.630859 6.8381 0.630859C4.34909 0.630859 2.33419 2.80748 2.33419 5.49627C2.33419 8.18506 4.34909 10.3617 6.8381 10.3617Z" fill="#6D6D6D"/>
<path d="M6.8381 23.3703C9.32711 23.3703 11.342 21.1937 11.342 18.5049C11.342 15.8161 9.32711 13.6395 6.8381 13.6395C4.34909 13.6395 2.33419 15.8161 2.33419 18.5049C2.33419 21.1937 4.34909 23.3703 6.8381 23.3703Z" fill="#6D6D6D"/>
</g>
</svg>
