<svg width="18" height="19" viewBox="0 0 18 19" fill="none" xmlns="http://www.w3.org/2000/svg">
<g id="iconixto/solid/mail">
<path id="icon" fill-rule="evenodd" clip-rule="evenodd" d="M4.60565 3.35938H13.4011C15.0203 3.35938 16.3329 4.67199 16.3329 6.29119V12.1548C16.3329 13.774 15.0203 15.0866 13.4011 15.0866H4.60565C2.98645 15.0866 1.67383 13.774 1.67383 12.1548V6.29119C1.67383 4.67199 2.98645 3.35938 4.60565 3.35938ZM5.04542 5.22841C4.86326 4.98553 4.5187 4.93631 4.27582 5.11847C4.03294 5.30063 3.98371 5.64519 4.16587 5.88807L6.21815 8.62443C7.61076 10.4813 10.396 10.4813 11.7886 8.62443L13.8409 5.88807C14.023 5.64519 13.9738 5.30063 13.7309 5.11847C13.4881 4.93631 13.1435 4.98553 12.9613 5.22841L10.9091 7.96477C9.95621 9.23523 8.05053 9.23523 7.09769 7.96477L5.04542 5.22841Z" fill="#363538" fill-opacity="0.6"/>
</g>
</svg>
