<svg width="12" height="24" viewBox="0 0 12 24" fill="none" xmlns="http://www.w3.org/2000/svg">
<path d="M6.09083 0.922852L1.03355 6.50346L1.65384 7.14623L2.2181 7.89626L2.56274 8.50502L2.79588 8.97588L3.00874 9.49047L3.23175 10.2472L3.36352 10.9905L3.41091 11.7708V12.5646L3.28918 13.3448L3.13038 13.9906L2.91076 14.6364L2.56274 15.3797L2.07957 16.1667L1.45111 16.9369L0.87793 17.4903L5.86667 23.1315L6.2165 22.8379L6.68637 22.377L7.11404 21.9174L7.8673 21.0592L8.45946 20.2273L9.16456 19.069L9.6963 18.0122L9.9685 17.3657L10.1975 16.7004L10.5416 15.6116L10.6466 15.1315L10.7517 14.6039L10.8042 14.2474L10.8615 13.9051L10.9331 13.2158L11 12.2651L10.9713 11.0482L10.8615 9.93113L10.7039 8.94714L10.4358 7.88159L10.1022 6.90787L9.93985 6.4135L9.72973 5.90012L9.01645 4.5321L8.52056 3.72438L7.93416 2.90062L7.52824 2.4015L7.08412 1.90238L6.47505 1.26756L6.09083 0.922852Z" stroke="black"/>
</svg>
