<svg width="12" height="24" viewBox="0 0 12 24" fill="none" xmlns="http://www.w3.org/2000/svg">
<path d="M5.90917 22.9902L10.9665 17.4096L10.3462 16.7669L9.7819 16.0168L9.43726 15.4081L9.20412 14.9372L8.99126 14.4226L8.76825 13.6659L8.63648 12.9226L8.58909 12.1423V11.3485L8.71082 10.5682L8.86962 9.92248L9.08924 9.27673L9.43726 8.53343L9.92043 7.74641L10.5489 6.97621L11.1221 6.42282L6.13333 0.781591L5.7835 1.07519L5.31363 1.53608L4.88596 1.99564L4.1327 2.85389L3.54054 3.68576L2.83544 4.84406L2.3037 5.90092L2.0315 6.5474L1.80253 7.21267L1.45845 8.30146L1.35339 8.78157L1.24833 9.30922L1.1958 9.66573L1.13849 10.008L1.06686 10.6973L1 11.648L1.02866 12.8649L1.13849 13.982L1.29608 14.9659L1.56418 16.0315L1.89779 17.0052L2.06015 17.4996L2.27027 18.013L2.98355 19.381L3.47944 20.1887L4.06584 21.0125L4.47176 21.5116L4.91588 22.0107L5.52495 22.6455L5.90917 22.9902Z" stroke="black"/>
</svg>
